<?xml version="1.0" encoding="UTF-8" standalone="no"?>
<svg
   xmlns:dc="http://purl.org/dc/elements/1.1/"
   xmlns:cc="http://creativecommons.org/ns#"
   xmlns:rdf="http://www.w3.org/1999/02/22-rdf-syntax-ns#"
   xmlns:svg="http://www.w3.org/2000/svg"
   xmlns="http://www.w3.org/2000/svg"
   xmlns:xlink="http://www.w3.org/1999/xlink"
   xmlns:sodipodi="http://sodipodi.sourceforge.net/DTD/sodipodi-0.dtd"
   xmlns:inkscape="http://www.inkscape.org/namespaces/inkscape"
   width="500mm"
   height="300mm"
   viewBox="0 0 500 300"
   version="1.1"
   id="svg8"
   inkscape:version="1.0.2 (1.0.2+r75+1)"
   sodipodi:docname="fig_cv.svg"
   inkscape:export-filename="/home/fverdugo/Documents/webpage/_assets/fig_cv.png"
   inkscape:export-xdpi="25.4"
   inkscape:export-ydpi="25.4">
  <defs
     id="defs2">
    <linearGradient
       inkscape:collect="always"
       id="linearGradient853">
      <stop
         style="stop-color:#161559;stop-opacity:1"
         offset="0"
         id="stop849" />
      <stop
         style="stop-color:#07365a;stop-opacity:1"
         offset="1"
         id="stop851" />
    </linearGradient>
    <linearGradient
       inkscape:collect="always"
       xlink:href="#linearGradient853"
       id="linearGradient855"
       x1="255.71719"
       y1="0"
       x2="256.32758"
       y2="300"
       gradientUnits="userSpaceOnUse" />
  </defs>
  <sodipodi:namedview
     id="base"
     pagecolor="#ffffff"
     bordercolor="#666666"
     borderopacity="1.0"
     inkscape:pageopacity="0.0"
     inkscape:pageshadow="2"
     inkscape:zoom="0.24748737"
     inkscape:cx="1005.3497"
     inkscape:cy="972.10192"
     inkscape:document-units="mm"
     inkscape:current-layer="layer1"
     inkscape:document-rotation="0"
     showgrid="false"
     inkscape:snap-bbox="false"
     inkscape:snap-page="true"
     inkscape:window-width="1920"
     inkscape:window-height="1025"
     inkscape:window-x="0"
     inkscape:window-y="27"
     inkscape:window-maximized="1" />
  <metadata
     id="metadata5">
    <rdf:RDF>
      <cc:Work
         rdf:about="">
        <dc:format>image/svg+xml</dc:format>
        <dc:type
           rdf:resource="http://purl.org/dc/dcmitype/StillImage" />
        <dc:title />
      </cc:Work>
    </rdf:RDF>
  </metadata>
  <g
     inkscape:label="Layer 1"
     inkscape:groupmode="layer"
     id="layer1"
     style="display:inline">
    <rect
       style="fill:url(#linearGradient855);fill-opacity:1;stroke:#000000;stroke-width:0.51;stroke-linecap:round"
       id="rect833"
       width="500"
       height="300"
       x="0"
       y="0" />
  </g>
  <g
     inkscape:groupmode="layer"
     id="layer2"
     inkscape:label="Layer 2">
    <path
       style="fill:#ffffff;fill-opacity:0.932926;stroke-width:0.204183"
       d="m 187.31579,249.91328 c -4.2488,-0.14496 -4.42711,-0.16814 -5.54632,-0.72093 -2.20487,-1.08903 -4.13872,-2.97753 -5.78752,-5.65181 l -0.91715,-1.48757 0.0111,-89.1353 c 0.006,-49.02442 0.086,-90.431344 0.17754,-92.015391 0.1607,-2.781465 0.19235,-2.929475 0.9244,-4.322561 0.96923,-1.844439 2.62655,-3.673457 4.24806,-4.688133 2.59215,-1.622063 1.77846,-1.527485 14.64882,-1.702669 6.34498,-0.08636 30.02505,-0.1642 52.62236,-0.172968 l 41.08602,-0.01595 1.16099,0.513446 c 1.51362,0.669387 3.03947,1.922027 7.63054,6.264244 5.42847,5.134246 22.71256,22.394825 24.59787,24.564414 2.32031,2.670214 2.37299,2.830872 2.5729,7.846243 0.0921,2.310308 0.17246,37.450885 0.1786,78.090155 l 0.0112,73.88957 -0.93937,1.91829 c -1.09729,2.24076 -3.21373,4.65071 -5.05807,5.75957 l -1.14142,0.68622 -4.13849,0.17547 c -5.20899,0.22088 -120.3996,0.40837 -126.34206,0.20566 z m 128.73002,-8.63616 c 0.33505,-0.56719 0.40769,-1.28566 0.54189,-5.35981 0.0852,-2.58765 0.16064,-36.04994 0.16757,-74.36064 l 0.0125,-69.655821 -14.75223,-0.103306 c -10.09404,-0.07069 -15.0485,-0.177327 -15.69049,-0.337727 -1.3787,-0.344458 -2.19633,-1.121349 -2.58987,-2.460841 -0.28726,-0.977729 -0.33951,-3.048848 -0.40386,-16.009752 l -0.0739,-14.886743 -49.04281,0.119407 c -32.75665,0.07975 -49.2252,0.189002 -49.59203,0.328976 -0.81629,0.31147 -0.9651,1.153617 -1.17706,6.660781 -0.46708,12.136284 -0.37259,173.128466 0.10298,175.430596 0.0738,0.35743 0.28551,0.71541 0.4704,0.79551 0.79316,0.34366 13.31449,0.42477 70.78635,0.45857 l 60.85358,0.0358 z M 205.386,216.61961 c -1.12301,-0.0736 -2.25474,-0.24955 -2.51496,-0.39085 -0.83476,-0.45333 -1.6708,-2.02105 -1.6708,-3.133 0,-1.32202 0.35763,-2.0938 1.56323,-3.37353 l 1.00987,-1.07197 36.84465,0.009 c 20.26454,0.005 40.79557,0.0937 45.62451,0.19686 9.03596,0.1931 10.9078,0.3675 11.70691,1.09068 0.45605,0.41273 1.05635,2.16525 1.05004,3.06557 -0.006,0.86833 -0.62698,2.14796 -1.38994,2.8646 -0.54593,0.51278 -0.85333,0.6124 -2.32282,0.75284 -2.01814,0.19286 -86.95162,0.18301 -89.90069,-0.0105 z m -2.80716,-25.88641 c -0.41036,-0.42113 -0.88842,-1.10729 -1.06236,-1.52481 -0.71452,-1.71519 -0.15383,-3.92748 1.2709,-5.01461 l 0.72861,-0.55595 8.1835,-0.13143 c 11.12294,-0.17863 60.82343,-0.17377 73.93045,0.007 9.40344,0.12987 10.6922,0.18619 11.27057,0.49252 1.38954,0.73598 2.26021,2.65665 2.0016,4.41546 -0.11418,0.77652 -0.32227,1.11345 -1.23847,2.0053 l -1.10123,1.07196 h -46.61873 -46.61873 l -0.74611,-0.76568 z m 37.92664,-24.24661 c -3.53271,-0.78917 -6.88273,-2.77085 -9.71389,-5.74619 -6.44918,-6.77761 -7.86669,-15.82282 -3.77127,-24.06467 2.33914,-4.70744 6.18769,-8.34493 10.83279,-10.23872 2.53436,-1.03324 4.47975,-1.37021 7.1444,-1.23749 3.32217,0.16545 5.88144,0.95136 8.97605,2.75634 3.64022,2.12325 5.19469,4.07166 4.94311,6.19587 -0.23984,2.02509 -1.55487,3.41831 -3.53096,3.7409 -1.12151,0.18307 -1.86358,-0.14892 -4.03338,-1.80446 -0.96941,-0.73967 -2.12687,-1.53069 -2.57214,-1.75785 -2.7268,-1.39111 -6.49771,-1.33149 -9.56616,0.15127 -1.52219,0.73557 -4.01942,3.22621 -4.86133,4.84851 -1.00418,1.93501 -1.39903,3.88678 -1.38379,6.84014 0.0215,4.17576 0.99611,6.86752 3.33517,9.21182 4.20066,4.21006 10.78969,4.38549 15.19954,0.40466 1.97097,-1.77922 3.09145,-2.22467 4.65339,-1.84996 1.36429,0.32729 2.68943,1.5669 3.02789,2.83247 0.47004,1.75759 -0.14586,3.22674 -2.13139,5.0841 -2.32632,2.17616 -5.78921,3.92513 -9.13778,4.61511 -1.90754,0.39305 -5.69052,0.40233 -7.41025,0.0182 z m 39.50942,-0.0514 c -0.88019,-0.43971 -1.42655,-1.43559 -3.80226,-6.93062 -1.78532,-4.12944 -7.3212,-17.61767 -10.18938,-24.82652 -1.60391,-4.03127 -1.60671,-4.04157 -1.35191,-5.00247 0.34404,-1.29743 1.08815,-2.32534 2.0916,-2.88931 0.68756,-0.38642 1.05596,-0.45276 2.13352,-0.38415 2.55996,0.16301 2.86578,0.64639 7.40386,11.70298 3.90612,9.51686 5.56525,13.23846 5.7981,13.00562 0.1053,-0.1053 2.0103,-4.68258 4.23335,-10.17174 2.22305,-5.48915 4.31482,-10.57752 4.64835,-11.30747 1.12432,-2.46063 2.16212,-3.26694 4.20485,-3.26694 0.8879,0 1.27932,0.12238 2.07302,0.64811 0.53814,0.35645 1.1565,0.93071 1.37413,1.27613 0.87355,1.38656 0.16536,3.67138 -5.60577,18.08571 -4.42845,11.06077 -6.77708,16.65471 -7.75826,18.47856 -0.80785,1.50166 -1.55534,1.93911 -3.31345,1.93911 -0.75774,0 -1.49773,-0.13619 -1.93975,-0.357 z m 32.25364,-83.14444 c 0.2335,-0.147687 -0.86206,-1.343722 -5.00248,-5.461278 -6.13209,-6.098207 -15.16894,-14.761678 -15.3979,-14.761678 -0.0861,0 -0.21566,0.564772 -0.28781,1.25505 -0.17023,1.628544 -0.16795,11.812262 0.004,15.947375 l 0.13337,3.215884 10.12615,-0.0031 c 5.85496,-0.0018 10.25225,-0.08289 10.42512,-0.192226 z"
       id="path891" />
  </g>
</svg>
