<?xml version="1.0" encoding="UTF-8" standalone="no"?>
<svg
   xmlns:dc="http://purl.org/dc/elements/1.1/"
   xmlns:cc="http://creativecommons.org/ns#"
   xmlns:rdf="http://www.w3.org/1999/02/22-rdf-syntax-ns#"
   xmlns:svg="http://www.w3.org/2000/svg"
   xmlns="http://www.w3.org/2000/svg"
   xmlns:xlink="http://www.w3.org/1999/xlink"
   xmlns:sodipodi="http://sodipodi.sourceforge.net/DTD/sodipodi-0.dtd"
   xmlns:inkscape="http://www.inkscape.org/namespaces/inkscape"
   width="500mm"
   height="300mm"
   viewBox="0 0 500 300"
   version="1.1"
   id="svg8"
   inkscape:version="1.0.2 (1.0.2+r75+1)"
   sodipodi:docname="fig_research.svg"
   inkscape:export-filename="/home/fverdugo/Documents/webpage/_assets/fig_research.png"
   inkscape:export-xdpi="25.356895"
   inkscape:export-ydpi="25.356895">
  <defs
     id="defs2">
    <linearGradient
       inkscape:collect="always"
       id="linearGradient853">
      <stop
         style="stop-color:#161559;stop-opacity:1"
         offset="0"
         id="stop849" />
      <stop
         style="stop-color:#07365a;stop-opacity:1"
         offset="1"
         id="stop851" />
    </linearGradient>
    <linearGradient
       inkscape:collect="always"
       xlink:href="#linearGradient853"
       id="linearGradient855"
       x1="255.71719"
       y1="0"
       x2="256.32758"
       y2="300"
       gradientUnits="userSpaceOnUse" />
  </defs>
  <sodipodi:namedview
     id="base"
     pagecolor="#ffffff"
     bordercolor="#666666"
     borderopacity="1.0"
     inkscape:pageopacity="0.0"
     inkscape:pageshadow="2"
     inkscape:zoom="0.24748737"
     inkscape:cx="-201.76648"
     inkscape:cy="718.96833"
     inkscape:document-units="mm"
     inkscape:current-layer="layer1"
     inkscape:document-rotation="0"
     showgrid="false"
     inkscape:snap-bbox="false"
     inkscape:snap-page="true"
     inkscape:window-width="1920"
     inkscape:window-height="1025"
     inkscape:window-x="0"
     inkscape:window-y="27"
     inkscape:window-maximized="1"
     inkscape:snap-global="false" />
  <metadata
     id="metadata5">
    <rdf:RDF>
      <cc:Work
         rdf:about="">
        <dc:format>image/svg+xml</dc:format>
        <dc:type
           rdf:resource="http://purl.org/dc/dcmitype/StillImage" />
        <dc:title />
      </cc:Work>
    </rdf:RDF>
  </metadata>
  <g
     inkscape:label="Layer 1"
     inkscape:groupmode="layer"
     id="layer1"
     style="display:inline">
    <rect
       style="fill:url(#linearGradient855);fill-opacity:1;stroke:#000000;stroke-width:0.51;stroke-linecap:round"
       id="rect833"
       width="500"
       height="300"
       x="0"
       y="0" />
  </g>
  <g
     inkscape:groupmode="layer"
     id="layer2"
     inkscape:label="Layer 2">
    <g
       id="g840"
       transform="matrix(0.83622977,0,0,0.83622977,26.26697,24.565475)">
      <path
         style="fill:#eff0f4;fill-opacity:1;stroke-width:0.983295"
         d="m 357.24467,233.3087 -20.21106,-19.98712 -5.89977,3.23587 c -16.60024,9.10477 -39.94994,8.0664 -56.26691,-2.50223 -8.71788,-5.64663 -15.61867,-13.30332 -20.02218,-22.21543 -6.886,-13.93632 -8.30192,-28.04884 -4.21165,-41.97778 5.19794,-17.70099 20.82199,-33.32501 38.523,-38.52294 24.00701,-7.04975 50.37909,2.90611 64.1932,24.23378 10.54481,16.28024 11.57096,39.54164 2.48927,56.4283 l -3.25972,6.06116 19.08495,19.01291 c 10.4967,10.45708 19.54389,19.84168 20.10483,20.85466 0.86358,1.55945 -0.007,2.87836 -5.69031,8.60383 -3.69062,3.71914 -7.1405,6.76208 -7.66641,6.76208 -0.52594,0 -10.05117,-8.9942 -21.16724,-19.98709 z m 10.29943,-12.42683 -18.20617,-18.20617 -3.68071,3.68075 -3.68077,3.68073 18.15228,18.1722 18.15228,18.17221 3.73465,-3.64679 3.7346,-3.64675 z m -47.43935,-5.61424 c 24.08817,-7.1411 39.87745,-31.85438 36.17061,-56.61408 -0.69905,-4.66945 -2.42729,-9.90637 -5.00933,-15.17959 -15.5741,-31.80603 -57.12394,-38.71975 -82.1709,-13.67288 -24.5328,24.53284 -18.3518,65.48615 12.31599,81.60161 12.07138,6.34331 25.73114,7.70774 38.69363,3.86494 z m -27.22398,-10.08255 c -19.36416,-6.3975 -30.78115,-24.87706 -27.98868,-45.30242 2.41351,-17.65336 16.56545,-31.78613 34.31514,-34.26876 15.50565,-2.16869 29.99943,3.75367 38.97509,15.92587 15.56534,21.10867 7.9299,50.60177 -15.99922,61.79958 -8.54504,3.99867 -20.50536,4.75206 -29.30233,1.84573 z m 25.67917,-6.13036 c 7.94598,-2.96899 16.84177,-11.91653 19.88211,-19.99778 3.17315,-8.43421 2.59911,-21.28636 -1.28851,-28.84744 -3.58876,-6.97988 -9.75985,-12.98065 -16.89715,-16.43081 -5.06964,-2.45067 -7.00404,-2.8277 -14.68822,-2.86281 -7.57932,-0.0334 -9.65073,0.33507 -14.43001,2.57551 -7.81595,3.66397 -13.98465,9.7045 -17.77303,17.40373 -2.90451,5.9029 -3.19194,7.30245 -3.15519,15.3616 0.0334,7.62556 0.42123,9.65407 2.76004,14.48831 4.42625,9.14901 13.04197,16.69825 22.27356,19.51656 5.29802,1.61742 17.43966,0.98895 23.3164,-1.20687 z m -36.06312,-35.687 c -2.51063,-3.02516 1.1728,-13.41629 6.51106,-18.36807 5.85134,-5.42769 15.51134,-8.31565 17.95723,-5.3685 1.81915,2.19193 -0.25306,4.51878 -4.02443,4.51878 -6.2581,0 -14.0304,6.9593 -15.07626,13.4993 -1.0166,6.35699 -3.04458,8.51756 -5.3676,5.71849 z"
         id="path851" />
      <path
         id="path855"
         style="fill:#eff0f4;fill-opacity:1;stroke-width:0.922851"
         d="m 1120.1699,114.95703 -185.69724,0.0723 c -102.13357,0.0396 -209.16031,0.3909 -237.83789,0.78125 -58.17045,0.79178 -54.49321,0.36404 -66.20899,7.69531 -7.32877,4.58606 -14.81856,12.8531 -19.19922,21.18945 -3.30863,6.29636 -3.45142,6.96566 -4.17773,19.53711 -0.41363,7.15945 -0.77628,194.30602 -0.80274,415.88281 l -0.0508,402.86719 4.14453,6.72461 c 7.4521,12.08704 16.1928,20.62274 26.15821,25.54494 5.05852,2.4984 5.86495,2.6026 25.06836,3.2578 26.85826,0.9162 547.48801,0.069 571.03131,-0.9297 l 18.705,-0.793 5.1582,-3.1016 c 8.336,-5.0117 17.9019,-15.90359 22.8614,-26.03117 l 4.2461,-8.66992 -0.025,-163.12305 -9.7149,-9.60742 -22.2988,12.23047 c -1.6924,0.9282 -3.4063,1.82479 -5.1348,2.69726 -0.1414,74.15503 -0.3376,127.48032 -0.5547,134.07031 -0.6065,18.41401 -0.9348,21.66107 -2.4492,24.22461 l -1.748,2.96094 -275.04301,-0.16211 c -259.75688,-0.15273 -316.34875,-0.51903 -319.93359,-2.07227 -0.83566,-0.36204 -1.79323,-1.98021 -2.12696,-3.5957 -2.14941,-10.405 -2.57593,-738.0458 -0.46484,-792.89844 0.95796,-24.89085 1.63093,-28.6977 5.32031,-30.10546 1.658,-0.63265 76.09161,-1.12588 224.14258,-1.48633 l 221.66021,-0.53907 0.3339,67.28321 c 0.2909,58.57969 0.5259,67.94031 1.8243,72.35937 1.7787,6.05414 5.4737,9.56619 11.705,11.12305 2.9017,0.72496 25.2957,1.20786 70.918,1.52734 l 66.6758,0.4668 -0.023,129.7832 c 12.877,6.21726 25.1856,13.70195 36.7148,22.375 -0.15,-91.10019 -0.3767,-157.94441 -0.6348,-164.41797 -0.9035,-22.66809 -1.1417,-23.39426 -11.6289,-35.46289 -8.521,-9.80593 -86.6405,-87.82002 -111.1758,-111.02539 -20.7503,-19.62561 -27.6471,-25.28705 -34.4882,-28.3125 z m 13.9453,59.0625 c 1.0349,0 41.8785,39.15654 69.5938,66.71875 18.7136,18.61021 23.6647,24.01609 22.6094,24.6836 -0.7931,0.49394 -20.6607,0.86082 -47.1153,0.86914 l -45.7676,0.0137 -0.6035,-14.53516 c -0.7779,-18.68957 -0.7869,-64.71756 -0.018,-72.07812 0.3261,-3.11987 0.9114,-5.67188 1.3007,-5.67188 z m 144.0547,360.93359 c -852.11327,-356.63541 -426.05663,-178.31771 0,0 z"
         transform="scale(0.26458333)"
         sodipodi:nodetypes="ccsssscccsssccccccccscccssssccssssccccsscccsccccssccc" />
    </g>
  </g>
</svg>
